<svg width="47" height="53" viewBox="0 0 47 53" fill="none" xmlns="http://www.w3.org/2000/svg">
<path d="M12.6057 2.06646C10.9988 3.04988 3.66925 8.48159 3.66925 25.6448C3.66925 25.7562 3.67058 25.8667 3.6719 25.977L3.67389 26.187C3.67471 26.3445 3.63833 26.5001 3.56739 26.6405C2.09661 29.5473 1.64549 32.5779 2.22642 35.6481C3.18837 40.7339 8.82243 50.3054 23.257 50.3058C23.3279 50.3058 23.3981 50.3056 23.4693 50.3051C28.9117 50.27 41.8387 48.7714 44.3212 35.6481C44.9021 32.5779 44.451 29.5472 42.98 26.6403C42.9093 26.4998 42.8729 26.3444 42.8737 26.1868L42.8757 25.9878C42.8767 25.8736 42.878 25.7596 42.878 25.6448C42.878 6.45769 35.7573 2.67099 34.1547 2.063C32.9611 2.78794 28.5598 5.98066 26.4221 14.6503C26.3044 15.1281 25.851 15.4458 25.3621 15.4001C24.0311 15.2721 22.7475 15.264 21.3846 15.3826C20.8837 15.4275 20.4277 15.0889 20.3254 14.5973C19.0987 8.72059 16.9607 5.59023 15.3829 3.99915C14.182 2.78761 13.1177 2.26605 12.6057 2.06646ZM23.2552 52.2881C7.51851 52.2884 1.34138 41.6617 0.273272 36.0154C-0.366203 32.6336 0.121632 29.1645 1.68419 25.9663C1.68303 25.8594 1.68204 25.7525 1.68204 25.6448C1.68204 5.07345 11.6624 0.283543 12.0873 0.0897293C12.2813 0.000823975 12.5004 -0.0227585 12.7082 0.0217781C12.9841 0.0804977 19.3489 1.5703 22.0846 13.3475C22.9744 13.3015 23.8247 13.3068 24.7038 13.3604C27.521 2.98621 33.3775 0.205853 33.6313 0.0897293C33.8255 0.00115204 34.0431 -0.0227585 34.2524 0.0217781C34.6857 0.113983 44.8652 2.54662 44.8652 25.6448C44.8652 25.7524 44.8644 25.8591 44.8634 25.9662C46.4256 29.1641 46.9136 32.6338 46.2742 36.0154C45.3559 40.8696 41.2968 52.1723 23.4822 52.2874C23.4065 52.2879 23.3306 52.2881 23.2552 52.2881Z" fill="white"/>
<path d="M43.8691 26.1924C43.8703 26.0091 43.8734 25.8274 43.8734 25.6431C43.8734 3.08147 34.047 0.989445 34.047 0.989445C34.047 0.989445 28.099 3.70497 25.4591 14.412C24.7335 14.3424 24.0047 14.3056 23.2754 14.3056C22.6159 14.3056 21.9566 14.3366 21.3001 14.3937C18.7816 2.32832 12.5024 0.989445 12.5024 0.989445C12.5024 0.989445 2.67744 5.47205 2.67744 25.6431C2.67744 25.8274 2.68059 26.0091 2.68174 26.1924C1.2022 29.1176 0.603078 32.4015 1.25148 35.8302C2.31049 41.4286 8.42809 51.392 23.4775 51.2947C39.7943 51.1893 44.2402 41.4286 45.2994 35.8302C45.9479 32.4015 45.3488 29.1176 43.8691 26.1924Z" fill="#231F20"/>
<path d="M25.3768 42.5852C25.3768 42.5852 24.6967 34.7716 27.0212 30.2384C29.2147 25.9611 34.7731 24.1088 40.3521 31.1143C40.3521 31.1143 40.1173 47.7517 25.3768 42.5852Z" fill="white"/>
<path d="M30.0193 26.7856C29.3327 28.2223 28.9 30.3115 28.9 32.6388C28.9 33.0643 28.915 33.4818 28.9428 33.8891L31.7775 33.9387L29.1032 35.3373C29.5727 38.3405 30.8033 40.4836 32.2473 40.4836C34.0961 40.4836 35.5949 36.9713 35.5949 32.6388C35.5949 30.0268 35.0496 27.7144 34.2121 26.2886C32.6639 25.9064 31.2349 26.1341 30.0193 26.7856Z" fill="#231F20"/>
<path d="M21.1773 42.5852C21.1773 42.5852 21.8575 34.7716 19.5327 30.2384C17.3395 25.9611 11.7808 24.1088 6.20197 31.1143C6.20197 31.1143 6.43679 47.7517 21.1773 42.5852Z" fill="white"/>
<path d="M16.534 26.7856C17.2206 28.2223 17.6533 30.3115 17.6533 32.6388C17.6533 33.0643 17.6383 33.4818 17.6103 33.8891L14.7758 33.9387L17.4499 35.3373C16.9806 38.3405 15.75 40.4836 14.3058 40.4836C12.4572 40.4836 10.9584 36.9713 10.9584 32.6388C10.9584 30.0268 11.5036 27.7144 12.3412 26.2886C13.8894 25.9064 15.3183 26.1341 16.534 26.7856Z" fill="#231F20"/>
</svg>
