<svg width="181" height="55" viewBox="0 0 181 55" fill="none" xmlns="http://www.w3.org/2000/svg">
<path d="M13.2614 2.59621C11.5931 3.61722 3.98335 9.25657 3.98335 27.0759C3.98335 27.1915 3.98472 27.3062 3.98609 27.4208L3.98815 27.6388C3.98901 27.8024 3.95124 27.9638 3.87759 28.1096C2.35059 31.1276 1.88222 34.274 2.48536 37.4615C3.48407 42.7417 9.33351 52.6792 24.3199 52.6795C24.3935 52.6795 24.4663 52.6794 24.5403 52.6788C30.1908 52.6424 43.6118 51.0865 46.1892 37.4615C46.7924 34.274 46.324 31.1274 44.7968 28.1094C44.7234 27.9635 44.6856 27.8022 44.6865 27.6386L44.6885 27.4319C44.6895 27.3134 44.6909 27.1951 44.6909 27.0759C44.6909 7.1553 37.298 3.22385 35.6342 2.59262C34.3949 3.34527 29.8254 6.66003 27.606 15.6611C27.4838 16.1572 27.013 16.487 26.5055 16.4396C25.1235 16.3067 23.7909 16.2983 22.3758 16.4214C21.8558 16.468 21.3825 16.1164 21.2762 15.6061C20.0026 9.50471 17.7828 6.25468 16.1447 4.60278C14.8979 3.34493 13.793 2.80343 13.2614 2.59621ZM24.318 54.7376C7.97975 54.738 1.56648 43.705 0.457547 37.8429C-0.206373 34.3319 0.30011 30.7301 1.9224 27.4097C1.92119 27.2987 1.92016 27.1877 1.92016 27.0759C1.92016 5.71815 12.2821 0.74514 12.7232 0.543919C12.9246 0.451611 13.152 0.427128 13.3679 0.473366C13.6542 0.534332 20.2624 2.08109 23.1026 14.3085C24.0265 14.2607 24.9093 14.2662 25.822 14.3219C28.7469 3.55112 34.8272 0.664478 35.0908 0.543919C35.2923 0.451954 35.5183 0.427128 35.7356 0.473366C36.1855 0.569099 46.7541 3.09473 46.7541 27.0759C46.7541 27.1876 46.7532 27.2984 46.7522 27.4095C48.3741 30.7297 48.8808 34.332 48.2169 37.8429C47.2635 42.8827 43.0492 54.6174 24.5537 54.737C24.4751 54.7375 24.3963 54.7376 24.318 54.7376Z" fill="white"/>
<path d="M45.7199 27.6446C45.7211 27.4543 45.7243 27.2656 45.7243 27.0743C45.7243 3.6502 35.5223 1.4782 35.5223 1.4782C35.5223 1.4782 29.347 4.29753 26.6061 15.4139C25.8528 15.3416 25.0961 15.3034 24.339 15.3034C23.6543 15.3034 22.9698 15.3356 22.2882 15.3949C19.6733 2.86826 13.1541 1.4782 13.1541 1.4782C13.1541 1.4782 2.95361 6.13216 2.95361 27.0743C2.95361 27.2656 2.95687 27.4543 2.95807 27.6446C1.42197 30.6815 0.799946 34.091 1.47314 37.6508C2.57263 43.4632 8.92408 53.8075 24.5488 53.7064C41.4893 53.597 46.1051 43.4632 47.2048 37.6508C47.8782 34.091 47.2562 30.6815 45.7199 27.6446Z" fill="#231F20"/>
<path d="M26.521 44.6639C26.521 44.6639 25.8149 36.5516 28.2283 31.8451C30.5056 27.4043 36.2766 25.4812 42.0688 32.7544C42.0688 32.7544 41.825 50.0278 26.521 44.6639Z" fill="white"/>
<path d="M31.3414 28.2603C30.6285 29.7519 30.1792 31.921 30.1792 34.3372C30.1792 34.7791 30.1948 35.2125 30.2237 35.6353L33.1668 35.6869L30.3902 37.1389C30.8776 40.2569 32.1553 42.482 33.6545 42.482C35.574 42.482 37.13 38.8353 37.13 34.3372C37.13 31.6254 36.564 29.2247 35.6944 27.7443C34.087 27.3476 32.6034 27.5839 31.3414 28.2603Z" fill="#231F20"/>
<path d="M22.1611 44.6639C22.1611 44.6639 22.8672 36.5517 20.4536 31.8451C18.1765 27.4044 12.4054 25.4812 6.61328 32.7545C6.61328 32.7545 6.85708 50.0279 22.1611 44.6639Z" fill="white"/>
<path d="M17.3404 28.2603C18.0533 29.7519 18.5026 31.921 18.5026 34.3372C18.5026 34.7791 18.487 35.2125 18.4579 35.6353L15.515 35.6869L18.2914 37.1389C17.8041 40.2569 16.5264 42.482 15.0271 42.482C13.1078 42.482 11.5518 38.8353 11.5518 34.3372C11.5518 31.6254 12.1178 29.2247 12.9874 27.7443C14.5948 27.3476 16.0783 27.5839 17.3404 28.2603Z" fill="#231F20"/>
<path d="M173.234 45.5768V9.61161H180.826V45.5768H173.234Z" fill="white"/>
<path d="M137.084 45.5768V35.5739C137.084 30.8787 139.609 28.2188 144.659 27.5939C139.609 26.9699 137.084 24.31 137.084 19.6142V9.61161H144.659V21.5998C144.659 22.6865 145.032 23.6261 145.779 24.4191C146.526 25.2121 147.421 25.6086 148.464 25.6086C149.495 25.6086 150.387 25.2121 151.139 24.4191C151.892 23.6261 152.268 22.6865 152.268 21.5998V9.61161H159.843V19.6142C159.843 24.31 157.318 26.9699 152.268 27.5939C157.318 28.2437 159.843 30.9097 159.843 35.5927V45.5768H152.268V33.5883C152.268 32.4897 151.892 31.5465 151.139 30.7598C150.387 29.9732 149.495 29.5798 148.464 29.5798C147.421 29.5798 146.526 29.9732 145.779 30.7598C145.032 31.5465 144.659 32.4897 144.659 33.5883V45.5768H137.084Z" fill="white"/>
<path d="M116.087 45.5768V9.61161H123.68V45.5768H116.087Z" fill="white"/>
<path d="M64.7866 45.5768V9.61161H66.5111L82.7266 26.6577L98.9241 9.61161H102.729V45.5768H95.1191V23.5857L81.8021 37.616L68.5914 23.5857V45.5768H64.7866Z" fill="white"/>
</svg>
