<svg width="22" height="22" viewBox="0 0 22 22" fill="none" xmlns="http://www.w3.org/2000/svg">
<g opacity="0.756035">
<path d="M11.0288 1.21875C16.4601 1.21875 20.8631 5.62174 20.8631 11.0531C20.8631 16.4845 16.4601 20.8875 11.0288 20.8875C5.59739 20.8875 1.1944 16.4845 1.1944 11.0531C1.1944 5.62174 5.59739 1.21875 11.0288 1.21875Z" fill="url(#paint0_linear_108_118)"/>
<path d="M11.0288 1.21875C16.4601 1.21875 20.8631 5.62174 20.8631 11.0531C20.8631 16.4845 16.4601 20.8875 11.0288 20.8875C5.59739 20.8875 1.1944 16.4845 1.1944 11.0531C1.1944 5.62174 5.59739 1.21875 11.0288 1.21875Z" stroke="#FFD7FE" stroke-width="2"/>
</g>
<path d="M11.12 5.67261C14.1417 5.67261 16.5913 8.12217 16.5913 11.1443C16.5913 14.166 14.1417 16.6152 11.12 16.6152C8.0983 16.6152 5.64874 14.166 5.64874 11.1443C5.64874 8.12217 8.0983 5.67261 11.12 5.67261Z" fill="#FFD7FE"/>
<defs>
<linearGradient id="paint0_linear_108_118" x1="11.0288" y1="1.21875" x2="11.0288" y2="20.8854" gradientUnits="userSpaceOnUse">
<stop stop-color="#37469D"/>
<stop offset="1" stop-color="#37469D" stop-opacity="0.49"/>
</linearGradient>
</defs>
</svg>
