<svg width="36" height="37" viewBox="0 0 36 37" fill="none" xmlns="http://www.w3.org/2000/svg">
<path fill-rule="evenodd" clip-rule="evenodd" d="M18.1092 36.3505C12.8178 36.3465 8.55527 35.0767 5.57712 32.7961C2.56327 30.4881 0.964355 27.2127 0.964355 23.5064C0.964355 19.9353 2.55965 17.3603 4.36484 15.6197C5.77959 14.2557 7.34063 13.3821 8.42766 12.8795C8.18187 12.1251 7.87517 11.1376 7.60074 10.1174C7.23368 8.75252 6.87351 7.15089 6.87351 5.9774C6.87351 4.58838 7.17622 3.1932 7.99281 2.10925C8.85562 0.964037 10.1545 0.350464 11.717 0.350464C12.9382 0.350464 13.975 0.803439 14.7865 1.58486C15.5623 2.33166 16.0789 3.32371 16.4355 4.35782C17.0619 6.17479 17.3059 8.45761 17.3742 10.7359H18.8709C18.9394 8.45761 19.1832 6.17479 19.8099 4.35782C20.1664 3.32371 20.6826 2.33184 21.4586 1.58486C22.2703 0.80362 23.307 0.350464 24.5281 0.350464C26.0908 0.350464 27.3895 0.964037 28.2523 2.10925C29.0689 3.1932 29.3718 4.58838 29.3718 5.9774C29.3718 7.15089 29.0115 8.75252 28.6444 10.1174C28.37 11.1376 28.0633 12.1251 27.8175 12.8795C28.9045 13.3821 30.4657 14.2557 31.8803 15.6198C33.6855 17.3603 35.2808 19.9353 35.2808 23.5064C35.2808 27.2127 33.6821 30.4881 30.668 32.7961C27.6899 35.0767 23.4273 36.3465 18.1359 36.3505H18.1092Z" fill="#F4F4F4"/>
<path d="M11.7169 1.67151C9.42841 1.67151 8.37492 3.3964 8.37492 5.78164C8.37492 7.67764 9.59898 11.4747 10.1011 12.9529C10.2142 13.2855 10.0366 13.6497 9.71282 13.7786C7.87862 14.5092 2.46576 17.1843 2.46576 23.3108C2.46576 29.7643 7.96653 34.6303 18.1105 34.6381L18.1225 34.6379L18.1346 34.6381C28.2784 34.6303 33.7792 29.7643 33.7792 23.3108C33.7792 17.1843 28.3664 14.5092 26.5322 13.7786C26.2084 13.6499 26.031 13.2855 26.1439 12.9529C26.6462 11.4749 27.8702 7.67764 27.8702 5.78164C27.8702 3.39622 26.8167 1.67151 24.5281 1.67151C21.2339 1.67151 20.4126 6.3856 20.354 11.4452C20.3502 11.7829 20.0798 12.0569 19.7455 12.0569H16.4996C16.1652 12.0569 15.895 11.7829 15.891 11.4452C15.8324 6.3856 15.0113 1.67151 11.7169 1.67151Z" fill="white"/>
<path d="M18.1346 32.5708C10.6815 32.5708 2.47863 28.5404 2.46576 23.3231V23.3474C2.46576 29.8062 7.97523 34.6747 18.1346 34.6747C28.294 34.6747 33.8035 29.8062 33.8035 23.3474V23.3231C33.7906 28.5404 25.5878 32.5708 18.1346 32.5708Z" fill="#96A0DF"/>
<path d="M13.9935 21.7206C13.9935 23.4821 13.1695 24.3995 12.153 24.3995C11.1365 24.3995 10.3124 23.4821 10.3124 21.7206C10.3124 19.9591 11.1365 19.0417 12.153 19.0417C13.1695 19.0417 13.9935 19.9591 13.9935 21.7206ZM25.957 21.7206C25.957 23.4821 25.133 24.3995 24.1165 24.3995C23.1 24.3995 22.2759 23.4821 22.2759 21.7206C22.2759 19.9591 23.1 19.0417 24.1165 19.0417C25.133 19.0417 25.957 19.9591 25.957 21.7206Z" fill="#DA569F"/>
</svg>
