<svg width="139" height="34" viewBox="0 0 139 34" fill="none" xmlns="http://www.w3.org/2000/svg">
<g clip-path="url(#clip0_166_26)">
<path d="M10.6035 15.807C9.77616 15.807 9.10535 16.4777 9.10535 17.305C9.10535 18.1321 9.77616 18.8029 10.6035 18.8029C11.4307 18.8029 12.1014 18.132 12.1014 17.305C12.1014 16.4777 11.4306 15.807 10.6035 15.807Z" fill="#FCFEFE"/>
<path d="M21.9782 18.8031C22.8055 18.8031 23.4762 18.1321 23.4762 17.3051C23.4762 16.4777 22.8054 15.8071 21.9782 15.8071C21.1508 15.8071 20.4801 16.4778 20.4801 17.3051C20.4801 18.1321 21.1509 18.8031 21.9782 18.8031Z" fill="#FCFEFE"/>
<path d="M32.8392 17.298C32.8392 8.16054 25.5667 0.753372 16.5954 0.753372C7.62431 0.753372 0.351746 8.16054 0.351746 17.298C0.351746 24.8996 5.38573 31.3032 12.2433 33.241C13.5847 29.9299 14.5138 25.8219 14.9092 21.763C8.39469 21.4818 3.35918 19.5926 3.35918 17.3051C3.35918 15.713 5.79813 14.3142 9.47554 13.5159L11.4481 6.81947L13.2554 12.9562C13.7939 12.9077 14.3463 12.8719 14.9092 12.8469C15.4615 12.8238 16.0244 12.8113 16.5954 12.8113C17.1666 12.8113 17.7294 12.8238 18.2818 12.8469C18.8446 12.8719 19.397 12.9077 19.9354 12.9562L21.7426 6.81947L23.715 13.5159C27.3926 14.3143 29.8315 15.713 29.8315 17.3051C29.8315 19.5927 24.796 21.4818 18.2817 21.763C18.6769 25.8219 19.6058 29.9299 20.9475 33.241C27.8051 31.3032 32.8392 24.8995 32.8392 17.298Z" fill="#FCFEFE"/>
<path d="M41.4431 24.6315V9.0723H47.1867C51.935 9.0723 54.8751 11.9896 54.8751 16.8442C54.8751 21.7065 51.935 24.6314 47.1943 24.6314H41.4431V24.6315ZM47.0499 21.4255C49.6709 21.4255 51.1067 20.2099 51.1067 16.8442C51.1067 13.4939 49.6709 12.2783 46.9967 12.2783H45.2038V21.4255H47.0499Z" fill="#FCFEFE"/>
<path d="M57.0633 9.0723H67.9123V12.1264H60.8238V15.3173H67.3575V18.3789H60.8238V21.5774H67.9123V24.6315H57.0633V9.0723Z" fill="#FCFEFE"/>
<path d="M76.9154 13.9877H77.0368L79.9086 9.0723H84.1175L79.4225 16.852L84.2697 24.6315H79.9544L77.037 19.6629H76.9155L73.9981 24.6315H69.7133L74.5378 16.852L69.8349 9.0723H74.0743L76.9154 13.9877Z" fill="#FCFEFE"/>
<path d="M93.0825 20.4682H93.2116L96.6911 9.0723H100.9L95.6505 24.6314H90.6437L85.3939 9.0723H89.603L93.0825 20.4682Z" fill="#FCFEFE"/>
<path d="M102.534 9.82439C102.534 8.84421 103.392 8.05444 104.441 8.05444C105.496 8.05444 106.347 8.84421 106.347 9.82439C106.347 10.8044 105.496 11.6022 104.441 11.6022C103.392 11.6022 102.534 10.8044 102.534 9.82439ZM102.579 12.9621H106.294V24.6315H102.579V12.9621Z" fill="#FCFEFE"/>
<path d="M108.201 18.8424C108.201 15.2261 110.465 12.8102 113.991 12.8102C117.303 12.8102 119.643 14.9221 119.643 18.7664V19.6932H111.863V19.7918C111.863 21.2201 112.745 22.17 114.173 22.17C115.145 22.17 115.905 21.7521 116.194 20.9772L119.605 21.0761C119.18 23.3705 117.166 24.852 114.104 24.852C110.435 24.852 108.201 22.5803 108.201 18.8424ZM116.186 17.5358C116.171 16.3431 115.29 15.4919 114.067 15.4919C112.836 15.4919 111.916 16.3734 111.863 17.5358H116.186Z" fill="#FCFEFE"/>
<path d="M120.57 12.9621H124.3L125.873 20.4377H125.972L127.659 12.9621H131.297L133.03 20.3847H133.128L134.655 12.9621H138.386L135.339 24.6315H131.366L129.543 17.832H129.414L127.59 24.6315H123.609L120.57 12.9621Z" fill="#FCFEFE"/>
</g>
<defs>
<clipPath id="clip0_166_26">
<rect width="138.034" height="32.4876" fill="white" transform="translate(0.351746 0.753372)"/>
</clipPath>
</defs>
</svg>
