<svg width="159" height="42" viewBox="0 0 159 42" fill="none" xmlns="http://www.w3.org/2000/svg">
<g clip-path="url(#clip0_166_61)">
<path d="M57.65 32.4476C56.2657 32.4476 55.0118 32.227 53.8884 31.7856C52.785 31.3242 51.832 30.6421 51.0295 29.7393C50.2471 28.8365 49.6452 27.723 49.2239 26.3989C48.8026 25.0548 48.592 23.5 48.592 21.7345C48.592 19.969 48.8026 18.4042 49.2239 17.04C49.6452 15.6557 50.2471 14.5021 51.0295 13.5793C51.832 12.6363 52.785 11.9241 53.8884 11.4426C55.0118 10.9612 56.2657 10.7204 57.65 10.7204C59.5358 10.7204 61.1007 11.1217 62.3445 11.9241C63.5884 12.7266 64.5815 13.9404 65.3237 15.5654L61.9232 17.371C61.6223 16.4281 61.1308 15.6757 60.4487 15.114C59.7666 14.5322 58.8337 14.2413 57.65 14.2413C56.1654 14.2413 54.9817 14.7429 54.099 15.746C53.2363 16.7491 52.805 18.1534 52.805 19.959V23.2692C52.805 25.0949 53.2363 26.4992 54.099 27.4823C54.9817 28.4453 56.1654 28.9267 57.65 28.9267C58.8337 28.9267 59.7966 28.6058 60.5389 27.9638C61.3013 27.3218 61.853 26.5293 62.1941 25.5864L65.414 27.4823C64.6517 29.0471 63.6385 30.2709 62.3746 31.1536C61.1107 32.0163 59.5358 32.4476 57.65 32.4476Z" fill="white"/>
<path d="M74.2011 32.4476C73.0776 32.4476 72.0645 32.257 71.1617 31.8759C70.279 31.4947 69.5166 30.943 68.8746 30.2207C68.2527 29.4985 67.7712 28.6358 67.4302 27.6327C67.0891 26.6096 66.9186 25.466 66.9186 24.2021C66.9186 22.9382 67.0891 21.8047 67.4302 20.8016C67.7712 19.7985 68.2527 18.9459 68.8746 18.2437C69.5166 17.5215 70.279 16.9697 71.1617 16.5886C72.0645 16.2074 73.0776 16.0168 74.2011 16.0168C75.3246 16.0168 76.3377 16.2074 77.2405 16.5886C78.1433 16.9697 78.9057 17.5215 79.5276 18.2437C80.1696 18.9459 80.6611 19.7985 81.0022 20.8016C81.3432 21.8047 81.5137 22.9382 81.5137 24.2021C81.5137 25.466 81.3432 26.6096 81.0022 27.6327C80.6611 28.6358 80.1696 29.4985 79.5276 30.2207C78.9057 30.943 78.1433 31.4947 77.2405 31.8759C76.3377 32.257 75.3246 32.4476 74.2011 32.4476ZM74.2011 29.348C75.2243 29.348 76.0268 29.0371 76.6086 28.4152C77.1904 27.7932 77.4813 26.8804 77.4813 25.6767V22.7577C77.4813 21.574 77.1904 20.6712 76.6086 20.0493C76.0268 19.4274 75.2243 19.1164 74.2011 19.1164C73.198 19.1164 72.4056 19.4274 71.8238 20.0493C71.242 20.6712 70.9511 21.574 70.9511 22.7577V25.6767C70.9511 26.8804 71.242 27.7932 71.8238 28.4152C72.4056 29.0371 73.198 29.348 74.2011 29.348Z" fill="white"/>
<path d="M86.2384 14.0908C85.4359 14.0908 84.8541 13.9103 84.493 13.5492C84.152 13.188 83.9814 12.7266 83.9814 12.1649V11.563C83.9814 11.0013 84.152 10.5398 84.493 10.1787C84.8541 9.81761 85.4359 9.63705 86.2384 9.63705C87.0208 9.63705 87.5926 9.81761 87.9537 10.1787C88.3149 10.5398 88.4954 11.0013 88.4954 11.563V12.1649C88.4954 12.7266 88.3149 13.188 87.9537 13.5492C87.5926 13.9103 87.0208 14.0908 86.2384 14.0908ZM84.3125 16.3779H88.1644V32.0865H84.3125V16.3779Z" fill="white"/>
<path d="M92.0162 32.0865V16.3779H95.8682V18.996H96.0186C96.3396 18.1534 96.8412 17.4512 97.5233 16.8895C98.2255 16.3077 99.1884 16.0168 100.412 16.0168C102.037 16.0168 103.281 16.5484 104.144 17.6117C105.006 18.675 105.438 20.1897 105.438 22.1558V32.0865H101.586V22.547C101.586 21.4235 101.385 20.5809 100.984 20.0192C100.583 19.4574 99.9207 19.1766 98.9978 19.1766C98.5966 19.1766 98.2054 19.2368 97.8242 19.3571C97.4631 19.4574 97.1321 19.6179 96.8311 19.8386C96.5503 20.0392 96.3196 20.3001 96.139 20.621C95.9584 20.922 95.8682 21.2831 95.8682 21.7044V32.0865H92.0162Z" fill="white"/>
<path d="M114.255 32.4476C112.75 32.4476 111.486 32.1969 110.463 31.6953C109.44 31.1737 108.537 30.4615 107.755 29.5587L110.102 27.2716C110.684 27.9337 111.316 28.4553 111.998 28.8365C112.7 29.2176 113.503 29.4082 114.405 29.4082C115.328 29.4082 115.99 29.2477 116.392 28.9267C116.813 28.6058 117.024 28.1644 117.024 27.6026C117.024 27.1412 116.873 26.7801 116.572 26.5193C116.291 26.2384 115.8 26.0478 115.098 25.9475L113.533 25.7369C111.827 25.5162 110.523 25.0347 109.621 24.2924C108.738 23.53 108.297 22.4266 108.297 20.9822C108.297 20.2198 108.437 19.5377 108.718 18.9358C108.999 18.3139 109.4 17.7923 109.922 17.371C110.443 16.9296 111.065 16.5986 111.787 16.3779C112.53 16.1372 113.352 16.0168 114.255 16.0168C115.017 16.0168 115.689 16.077 116.271 16.1974C116.873 16.2977 117.415 16.4582 117.896 16.6788C118.378 16.8795 118.819 17.1403 119.22 17.4613C119.622 17.7622 120.013 18.1033 120.394 18.4844L118.137 20.7414C117.676 20.2599 117.124 19.8587 116.482 19.5377C115.84 19.2167 115.138 19.0562 114.375 19.0562C113.533 19.0562 112.921 19.2067 112.54 19.5076C112.179 19.8085 111.998 20.1997 111.998 20.6812C111.998 21.2028 112.148 21.6041 112.449 21.885C112.77 22.1458 113.302 22.3364 114.044 22.4567L115.639 22.6674C119.03 23.1489 120.725 24.6936 120.725 27.3017C120.725 28.0641 120.565 28.7662 120.244 29.4082C119.943 30.0302 119.511 30.5718 118.95 31.0333C118.388 31.4746 117.706 31.8257 116.903 32.0865C116.121 32.3273 115.238 32.4476 114.255 32.4476Z" fill="white"/>
<path d="M132.913 29.4684H132.762C132.622 29.8697 132.431 30.2508 132.191 30.612C131.97 30.953 131.679 31.264 131.318 31.5448C130.977 31.8257 130.555 32.0464 130.054 32.2069C129.572 32.3674 129.011 32.4476 128.369 32.4476C126.744 32.4476 125.5 31.916 124.637 30.8527C123.774 29.7894 123.343 28.2747 123.343 26.3086V16.3779H127.195V25.9174C127.195 27.0008 127.406 27.8334 127.827 28.4152C128.248 28.9769 128.92 29.2578 129.843 29.2578C130.224 29.2578 130.596 29.2076 130.957 29.1073C131.338 29.007 131.669 28.8565 131.95 28.6559C132.231 28.4352 132.461 28.1744 132.642 27.8735C132.822 27.5525 132.913 27.1813 132.913 26.76V16.3779H136.765V32.0865H132.913V29.4684Z" fill="white"/>
<path d="M144.469 32.0865C143.144 32.0865 142.171 31.7555 141.55 31.0934C140.928 30.4314 140.617 29.4985 140.617 28.2948V9.81761H144.469V29.017H146.545V32.0865H144.469Z" fill="white"/>
<path d="M153.617 32.0865C152.293 32.0865 151.279 31.7454 150.577 31.0633C149.895 30.3612 149.554 29.3681 149.554 28.0841V19.4474H147.237V16.3779H148.441C149.022 16.3779 149.414 16.2475 149.614 15.9867C149.835 15.7058 149.945 15.2945 149.945 14.7529V12.0746H153.406V16.3779H156.626V19.4474H153.406V29.017H156.385V32.0865H153.617Z" fill="white"/>
<path d="M14.1197 0.668839H41.5338V28.083C41.5338 31.5951 40.1387 34.9634 37.6552 37.4469C35.1717 39.9304 31.8034 41.3256 28.2913 41.3256H0.877136V13.9114C0.877136 10.3993 2.27233 7.03096 4.7558 4.5475C7.23926 2.06403 10.6076 0.668839 14.1197 0.668839Z" fill="#4455BF"/>
<path d="M32.9985 16.6678L30.2804 17.9133L28.3722 18.7878L28.2872 18.8261L25.6635 20.0112C25.6635 20.001 25.6592 19.9908 25.6558 19.9806C25.501 19.335 25.2023 18.7327 24.7821 18.2187L24.5397 17.6887L27.1574 16.4891L29.0937 15.6018L31.8356 14.3453C31.9876 14.5824 32.1294 14.8248 32.261 15.0727L32.9773 16.6355L32.9985 16.6678Z" fill="white"/>
<path d="M33.4417 23.8489C33.2402 24.7061 32.9479 25.5394 32.5697 26.3347L24.0683 24.8834L24.1483 24.4146C24.7684 23.9108 25.2391 23.2472 25.5094 22.4953L33.4417 23.8489Z" fill="white"/>
<path d="M18.1182 25.2007L14.6838 27.6329L12.2286 29.3718C11.6424 28.7315 11.1249 28.0315 10.6845 27.2833L13.127 25.5529L14.8429 24.3372L16.6175 23.0807L18.1182 25.2007Z" fill="white"/>
<path d="M18.4458 14.518L17.3841 16.8881L15.8289 16.1914L13.8595 15.3092L11.0869 14.0663C11.5923 13.3168 12.1782 12.625 12.8343 12.0032L15.8595 13.3584L18.1727 14.3963L18.4458 14.518Z" fill="white"/>
<path d="M30.499 23.3461C30.0838 24.9586 29.2488 26.4322 28.079 27.6171C26.9092 28.802 25.4463 29.6559 23.8393 30.0917C22.2323 30.5276 20.5385 30.5299 18.9303 30.0984C17.3221 29.667 15.8569 28.8172 14.6838 27.6355C14.0718 27.0173 13.5479 26.3176 13.127 25.5563L10.6845 27.2867C11.938 29.4229 13.8028 31.1346 16.0383 32.201C18.2738 33.2674 20.7776 33.6397 23.2266 33.2697C25.6757 32.8997 27.9577 31.8045 29.7785 30.1254C31.5992 28.4462 32.8752 26.26 33.4417 23.8489L30.499 23.3461Z" fill="white"/>
<path d="M15.8594 13.3584C17.0512 12.4995 18.4271 11.9309 19.8775 11.698C21.3278 11.465 22.8126 11.5742 24.2133 12.0167C25.6141 12.4592 26.8921 13.2228 27.9454 14.2467C28.9987 15.2706 29.7983 16.5265 30.2803 17.9141L32.9984 16.6686C32.9933 16.6559 32.989 16.6431 32.9839 16.6312L32.2676 15.0684C32.1332 14.8211 31.9914 14.5787 31.8422 14.341C30.7362 12.6047 29.2156 11.1708 27.4174 10.1687C25.6191 9.16647 23.5998 8.62747 21.5413 8.60021C19.4828 8.57295 17.4499 9.05829 15.6257 10.0125C13.8016 10.9667 12.2435 12.3598 11.0919 14.0662L13.8645 15.3092C14.429 14.5635 15.1013 13.9061 15.8594 13.3584Z" fill="white"/>
<path d="M12.1239 19.1962C12.2279 18.6617 12.3776 18.1371 12.5714 17.6283L9.84908 16.4083C8.77757 19.1077 8.68427 22.0969 9.58535 24.8578L12.1682 23.0288C11.8904 21.7678 11.8754 20.4632 12.1239 19.1962Z" fill="white"/>
<path d="M30.1443 17.55L28.2701 18.4918L28.1884 18.5335L25.6175 19.824" fill="white"/>
<path d="M16.4933 23.147L14.8335 24.3227C14.4134 23.5001 14.1535 22.6051 14.0679 21.6854L14.9935 21.0304L16.4933 23.147Z" fill="white"/>
<path d="M17.7413 17.0983L16.6796 19.4684L14.4796 18.4799C14.7788 17.6545 15.225 16.8901 15.7966 16.2237L17.7413 17.0983Z" fill="white"/>
<path d="M28.4334 22.9939C28.0326 24.4123 27.2137 25.6771 26.0837 26.6234C24.9536 27.5697 23.5646 28.1537 22.0978 28.2991C20.631 28.4446 19.1544 28.1448 17.8605 27.4388C16.5666 26.7329 15.5153 25.6535 14.8437 24.3415C14.8398 24.336 14.8366 24.33 14.8344 24.3236C14.1766 23.0301 13.9171 21.5706 14.0886 20.1296C14.2602 18.6886 14.8551 17.3309 15.7982 16.228L15.8297 16.1922C16.6849 15.2068 17.7872 14.4671 19.0233 14.0493C20.2593 13.6315 21.5844 13.5507 22.8621 13.8153C24.1397 14.0799 25.3238 14.6802 26.2923 15.5545C27.2608 16.4288 27.9787 17.5455 28.3721 18.7895L28.2871 18.827L25.6634 20.0112C25.6634 20.001 25.6591 19.9908 25.6557 19.9806C25.4111 18.9516 24.8044 18.045 23.9464 17.4265C23.0885 16.8079 22.0366 16.5188 20.983 16.612C19.9295 16.7051 18.9446 17.1743 18.2085 17.9337C17.4723 18.6931 17.0341 19.6921 16.9738 20.7481C16.9135 21.804 17.2352 22.8464 17.8801 23.6847C18.525 24.523 19.4501 25.1012 20.4862 25.3136C21.5223 25.5261 22.6003 25.3586 23.5231 24.8417C24.4459 24.3249 25.1518 23.4932 25.512 22.4988L28.4334 22.9939Z" fill="white"/>
</g>
<defs>
<clipPath id="clip0_166_61">
<rect width="157.615" height="40.6567" fill="white" transform="translate(0.877136 0.668839)"/>
</clipPath>
</defs>
</svg>
