<svg width="146" height="38" viewBox="0 0 146 38" fill="none" xmlns="http://www.w3.org/2000/svg">
<g clip-path="url(#clip0_166_111)">
<path d="M49.9628 29.1403C49.9628 29.4954 49.8772 29.8283 49.7059 30.139C49.5409 30.4497 49.2779 30.7002 48.9165 30.8904C48.5612 31.0807 48.1111 31.1758 47.5658 31.1758H46.453V33.7249H45.1213V27.0858H47.5658C48.0795 27.0858 48.517 27.1745 48.8784 27.3521C49.2399 27.5297 49.5093 27.7738 49.6869 28.0845C49.8707 28.3952 49.9628 28.7471 49.9628 29.1403ZM47.5088 30.101C47.8763 30.101 48.1491 30.0185 48.3268 29.8537C48.5041 29.6824 48.5931 29.4447 48.5931 29.1403C48.5931 28.4935 48.2316 28.1701 47.5088 28.1701H46.453V30.101H47.5088Z" fill="#BDBFBF"/>
<path d="M52.2397 29.2735C52.4109 28.9945 52.6328 28.7757 52.9055 28.6172C53.1844 28.4586 53.5017 28.3794 53.8567 28.3794V29.7776H53.5048C53.0863 29.7776 52.7693 29.8759 52.5536 30.0724C52.3443 30.269 52.2397 30.6114 52.2397 31.0997V33.7249H50.9081V28.4555H52.2397V29.2735Z" fill="#BDBFBF"/>
<path d="M57.0937 33.8105C56.5865 33.8105 56.1299 33.6994 55.724 33.4776C55.3184 33.2493 54.998 32.929 54.7633 32.5169C54.535 32.1049 54.4209 31.6293 54.4209 31.0902C54.4209 30.5512 54.5384 30.0756 54.7728 29.6634C55.014 29.2513 55.3405 28.9342 55.7525 28.7123C56.1649 28.484 56.6245 28.3699 57.1317 28.3699C57.6392 28.3699 58.0988 28.484 58.5109 28.7123C58.9233 28.9342 59.2467 29.2513 59.4811 29.6634C59.7223 30.0756 59.8425 30.5512 59.8425 31.0902C59.8425 31.6293 59.7189 32.1049 59.4716 32.5169C59.2307 32.929 58.9009 33.2493 58.4824 33.4776C58.0703 33.6994 57.6073 33.8105 57.0937 33.8105ZM57.0937 32.6501C57.3348 32.6501 57.5597 32.593 57.769 32.4789C57.9847 32.3583 58.1559 32.181 58.2826 31.9462C58.4096 31.7115 58.4729 31.4262 58.4729 31.0902C58.4729 30.5892 58.3397 30.2056 58.0734 29.9393C57.8135 29.6666 57.4932 29.5303 57.1127 29.5303C56.7322 29.5303 56.4122 29.6666 56.152 29.9393C55.8986 30.2056 55.7715 30.5892 55.7715 31.0902C55.7715 31.5912 55.8952 31.9778 56.1425 32.2506C56.3962 32.5169 56.7132 32.6501 57.0937 32.6501Z" fill="#BDBFBF"/>
<path d="M60.4769 31.0711C60.4769 30.5385 60.5816 30.0661 60.7908 29.6539C61.0062 29.2418 61.298 28.9247 61.6659 28.7027C62.0335 28.4808 62.4425 28.3698 62.8929 28.3698C63.2353 28.3698 63.5618 28.4459 63.8726 28.5981C64.1831 28.744 64.4304 28.9405 64.6145 29.1878V26.6863H65.9651V33.7249H64.6145V32.9449C64.4494 33.2048 64.2181 33.4141 63.9201 33.5727C63.6219 33.7313 63.2764 33.8105 62.8834 33.8105C62.4394 33.8105 62.0335 33.6964 61.6659 33.4681C61.298 33.2398 61.0062 32.9195 60.7908 32.5074C60.5816 32.0889 60.4769 31.6102 60.4769 31.0711ZM64.624 31.0902C64.624 30.7668 64.5605 30.4909 64.4338 30.2627C64.3067 30.028 64.1355 29.8505 63.9201 29.73C63.7044 29.6032 63.4731 29.5398 63.2258 29.5398C62.9785 29.5398 62.7502 29.6 62.541 29.7205C62.3317 29.841 62.1605 30.0185 62.0273 30.2531C61.9003 30.4814 61.8371 30.7541 61.8371 31.0711C61.8371 31.3881 61.9003 31.6673 62.0273 31.9082C62.1605 32.1429 62.3317 32.3236 62.541 32.4503C62.7563 32.5771 62.9846 32.6406 63.2258 32.6406C63.4731 32.6406 63.7044 32.5804 63.9201 32.4598C64.1355 32.3331 64.3067 32.1555 64.4338 31.9272C64.5605 31.6925 64.624 31.4136 64.624 31.0902Z" fill="#BDBFBF"/>
<path d="M72.2404 28.4555V33.7249H70.8993V33.0591C70.7281 33.2874 70.5028 33.4681 70.2239 33.6013C69.9512 33.728 69.6532 33.7915 69.3298 33.7915C68.9175 33.7915 68.553 33.7059 68.236 33.5347C67.9187 33.357 67.6684 33.1002 67.4846 32.7642C67.3069 32.4218 67.2183 32.0159 67.2183 31.5467V28.4555H68.5499V31.3565C68.5499 31.775 68.6545 32.0984 68.8638 32.3267C69.073 32.5485 69.3584 32.6596 69.7198 32.6596C70.0874 32.6596 70.3761 32.5485 70.5854 32.3267C70.7946 32.0984 70.8993 31.775 70.8993 31.3565V28.4555H72.2404Z" fill="#BDBFBF"/>
<path d="M73.2117 31.0902C73.2117 30.5449 73.3224 30.0693 73.5446 29.6634C73.7664 29.2513 74.0739 28.9342 74.4672 28.7123C74.8603 28.484 75.3104 28.3699 75.8179 28.3699C76.4708 28.3699 77.0099 28.5347 77.4348 28.8645C77.8659 29.1879 78.1543 29.6444 78.3004 30.2341H76.8641C76.788 30.0059 76.658 29.8283 76.4742 29.7015C76.2965 29.5683 76.0747 29.5017 75.8083 29.5017C75.4279 29.5017 75.1266 29.6412 74.9047 29.9202C74.6826 30.1929 74.5718 30.5829 74.5718 31.0902C74.5718 31.5912 74.6826 31.9812 74.9047 32.2601C75.1266 32.5329 75.4279 32.6691 75.8083 32.6691C76.3471 32.6691 76.6991 32.4283 76.8641 31.9462H78.3004C78.1543 32.5169 77.8659 32.9704 77.4348 33.3064C77.0034 33.6424 76.4647 33.8105 75.8179 33.8105C75.3104 33.8105 74.8603 33.6994 74.4672 33.4776C74.0739 33.2493 73.7664 32.9324 73.5446 32.5264C73.3224 32.1144 73.2117 31.6354 73.2117 31.0902Z" fill="#BDBFBF"/>
<path d="M80.8263 29.5493V32.0984C80.8263 32.2761 80.8674 32.4059 80.95 32.4884C81.0387 32.5645 81.1847 32.6025 81.3875 32.6025H82.0058V33.7249H81.1687C80.0464 33.7249 79.4852 33.1797 79.4852 32.0889V29.5493H78.8574V28.4555H79.4852V27.1524H80.8263V28.4555H82.0058V29.5493H80.8263Z" fill="#BDBFBF"/>
<path d="M87.5696 33.8105C87.0624 33.8105 86.6059 33.6994 86.1999 33.4776C85.7943 33.2493 85.474 32.929 85.2393 32.5169C85.011 32.1049 84.8969 31.6293 84.8969 31.0902C84.8969 30.5512 85.0144 30.0756 85.2488 29.6634C85.4899 29.2513 85.8164 28.9342 86.2285 28.7123C86.6409 28.484 87.1005 28.3699 87.6077 28.3699C88.1152 28.3699 88.5748 28.484 88.9869 28.7123C89.3992 28.9342 89.7226 29.2513 89.957 29.6634C90.1982 30.0756 90.3185 30.5512 90.3185 31.0902C90.3185 31.6293 90.1948 32.1049 89.9475 32.5169C89.7067 32.929 89.3768 33.2493 88.9583 33.4776C88.5463 33.6994 88.0832 33.8105 87.5696 33.8105ZM87.5696 32.6501C87.8108 32.6501 88.0357 32.593 88.245 32.4789C88.4607 32.3583 88.6319 32.181 88.7586 31.9462C88.8856 31.7115 88.9488 31.4262 88.9488 31.0902C88.9488 30.5892 88.8157 30.2056 88.5493 29.9393C88.2894 29.6666 87.9691 29.5303 87.5886 29.5303C87.2082 29.5303 86.8882 29.6666 86.628 29.9393C86.3745 30.2056 86.2475 30.5892 86.2475 31.0902C86.2475 31.5912 86.3712 31.9778 86.6185 32.2506C86.8722 32.5169 87.1892 32.6501 87.5696 32.6501Z" fill="#BDBFBF"/>
<path d="M93.7117 29.5493H92.7891V33.7249H91.4385V29.5493H90.8392V28.4554H91.4385V28.1891C91.4385 27.5423 91.6222 27.0667 91.9901 26.7624C92.358 26.458 92.9128 26.3153 93.6547 26.3344V27.4567C93.3313 27.4504 93.1061 27.5043 92.9793 27.6184C92.8526 27.7326 92.7891 27.9387 92.7891 28.2367V28.4554H93.7117V29.5493Z" fill="#BDBFBF"/>
<path d="M98.4005 28.3508V29.7015H100.579V30.957H98.4005V32.4218H100.864V33.7249H96.774V27.0477H100.864V28.3508H98.4005Z" fill="#BDBFBF"/>
<path d="M104.879 32.3457V33.7249H104.051C103.461 33.7249 103.001 33.5822 102.672 33.2969C102.342 33.0051 102.177 32.5329 102.177 31.8796V29.7681H101.531V28.4174H102.177V27.1238H103.804V28.4174H104.869V29.7681H103.804V31.8987C103.804 32.0573 103.842 32.1714 103.918 32.2411C103.994 32.3107 104.121 32.3457 104.298 32.3457H104.879Z" fill="#BDBFBF"/>
<path d="M109.047 28.3603C109.655 28.3603 110.144 28.5632 110.511 28.9691C110.879 29.3686 111.063 29.9202 111.063 30.6241V33.7249H109.446V30.8429C109.446 30.4878 109.354 30.2119 109.17 30.0154C108.987 29.8188 108.739 29.7205 108.428 29.7205C108.118 29.7205 107.871 29.8188 107.687 30.0154C107.503 30.2119 107.411 30.4878 107.411 30.8429V33.7249H105.784V26.6863H107.411V29.1308C107.576 28.8961 107.801 28.7091 108.086 28.5696C108.371 28.4301 108.692 28.3603 109.047 28.3603Z" fill="#BDBFBF"/>
<path d="M117.197 30.9856C117.197 31.1377 117.187 31.2964 117.168 31.4611H113.487C113.513 31.791 113.617 32.0444 113.801 32.2221C113.991 32.3933 114.223 32.4789 114.495 32.4789C114.901 32.4789 115.183 32.3077 115.342 31.9653H117.073C116.984 32.3141 116.823 32.628 116.588 32.9069C116.36 33.1858 116.071 33.4046 115.722 33.5632C115.373 33.7218 114.983 33.801 114.552 33.801C114.032 33.801 113.57 33.6899 113.164 33.4681C112.758 33.2463 112.441 32.929 112.213 32.5169C111.984 32.1049 111.87 31.6228 111.87 31.0712C111.87 30.5195 111.981 30.0376 112.203 29.6254C112.431 29.2132 112.748 28.8962 113.154 28.6742C113.56 28.4523 114.026 28.3413 114.552 28.3413C115.066 28.3413 115.523 28.4491 115.922 28.6647C116.322 28.8803 116.632 29.1879 116.854 29.5873C117.083 29.9868 117.197 30.4529 117.197 30.9856ZM115.532 30.5575C115.532 30.2785 115.437 30.0566 115.247 29.8917C115.057 29.7269 114.819 29.6444 114.533 29.6444C114.261 29.6444 114.029 29.7237 113.839 29.8822C113.655 30.0407 113.541 30.2658 113.497 30.5575H115.532Z" fill="#BDBFBF"/>
<path d="M119.681 29.302C119.872 29.0103 120.109 28.782 120.395 28.6171C120.68 28.4459 120.997 28.3603 121.346 28.3603V30.0819H120.899C120.493 30.0819 120.188 30.1707 119.986 30.3483C119.783 30.5195 119.681 30.8239 119.681 31.2614V33.7249H118.055V28.4174H119.681V29.302Z" fill="#BDBFBF"/>
<path d="M124.282 33.801C123.819 33.801 123.407 33.7218 123.045 33.5632C122.684 33.4046 122.399 33.1892 122.189 32.9164C121.98 32.6375 121.863 32.3267 121.838 31.9843H123.445C123.464 32.1681 123.55 32.3172 123.702 32.4313C123.854 32.5455 124.041 32.6025 124.263 32.6025C124.466 32.6025 124.621 32.5645 124.729 32.4884C124.843 32.4059 124.9 32.3012 124.9 32.1745C124.9 32.0223 124.821 31.9113 124.662 31.8416C124.504 31.7655 124.247 31.683 123.892 31.5943C123.512 31.5056 123.195 31.4136 122.941 31.3185C122.687 31.2169 122.469 31.0617 122.285 30.8524C122.101 30.6368 122.009 30.3483 122.009 29.9868C122.009 29.6825 122.091 29.4066 122.256 29.1593C122.427 28.9057 122.675 28.7059 122.998 28.5601C123.328 28.4143 123.718 28.3413 124.168 28.3413C124.834 28.3413 125.357 28.5062 125.737 28.8359C126.124 29.1657 126.346 29.6032 126.403 30.1485H124.9C124.875 29.9647 124.793 29.8188 124.653 29.711C124.52 29.6032 124.342 29.5493 124.12 29.5493C123.93 29.5493 123.784 29.5873 123.683 29.6634C123.582 29.7332 123.531 29.8315 123.531 29.9583C123.531 30.1105 123.61 30.2246 123.768 30.3007C123.933 30.3768 124.187 30.4529 124.529 30.529C124.923 30.6305 125.243 30.7319 125.49 30.8334C125.737 30.9285 125.953 31.0871 126.137 31.309C126.327 31.5247 126.426 31.8161 126.432 32.184C126.432 32.4948 126.343 32.7737 126.165 33.0211C125.994 33.2619 125.744 33.4521 125.414 33.5917C125.09 33.7314 124.713 33.801 124.282 33.801Z" fill="#BDBFBF"/>
<path d="M127.104 31.0712C127.104 30.5195 127.215 30.0376 127.437 29.6254C127.665 29.2132 127.979 28.8962 128.379 28.6742C128.784 28.4523 129.247 28.3413 129.767 28.3413C130.433 28.3413 130.988 28.5157 131.432 28.8645C131.882 29.2132 132.177 29.7046 132.316 30.3388H130.585C130.439 29.9329 130.157 29.73 129.739 29.73C129.44 29.73 129.203 29.8473 129.025 30.082C128.848 30.3102 128.759 30.64 128.759 31.0712C128.759 31.5023 128.848 31.8352 129.025 32.0699C129.203 32.2982 129.44 32.4123 129.739 32.4123C130.157 32.4123 130.439 32.2095 130.585 31.8036H132.316C132.177 32.4249 131.882 32.9134 131.432 33.2684C130.981 33.6234 130.427 33.801 129.767 33.801C129.247 33.801 128.784 33.6899 128.379 33.4681C127.979 33.2463 127.665 32.929 127.437 32.5169C127.215 32.1049 127.104 31.6228 127.104 31.0712Z" fill="#BDBFBF"/>
<path d="M132.863 31.0617C132.863 30.5163 132.964 30.0376 133.167 29.6254C133.376 29.2132 133.658 28.8962 134.013 28.6742C134.368 28.4523 134.765 28.3413 135.202 28.3413C135.576 28.3413 135.903 28.4174 136.182 28.5696C136.467 28.7218 136.686 28.9215 136.838 29.1688V28.4174H138.465V33.7249H136.838V32.9735C136.68 33.2208 136.458 33.4205 136.173 33.5727C135.894 33.7249 135.567 33.801 135.193 33.801C134.762 33.801 134.368 33.6899 134.013 33.4681C133.658 33.2398 133.376 32.9195 133.167 32.5074C132.964 32.0889 132.863 31.6069 132.863 31.0617ZM136.838 31.0712C136.838 30.6653 136.724 30.3451 136.496 30.1105C136.274 29.8759 136.001 29.7586 135.678 29.7586C135.355 29.7586 135.079 29.8759 134.85 30.1105C134.629 30.3388 134.518 30.6558 134.518 31.0617C134.518 31.4676 134.629 31.791 134.85 32.0318C135.079 32.2666 135.355 32.3838 135.678 32.3838C136.001 32.3838 136.274 32.2666 136.496 32.0318C136.724 31.7971 136.838 31.4771 136.838 31.0712Z" fill="#BDBFBF"/>
<path d="M142.876 28.3603C143.497 28.3603 143.992 28.5632 144.36 28.9691C144.734 29.3686 144.921 29.9202 144.921 30.6241V33.7249H143.304V30.8429C143.304 30.4878 143.212 30.2119 143.028 30.0154C142.844 29.8188 142.597 29.7205 142.286 29.7205C141.975 29.7205 141.728 29.8188 141.544 30.0154C141.36 30.2119 141.268 30.4878 141.268 30.8429V33.7249H139.642V28.4174H141.268V29.1213C141.433 28.8866 141.655 28.7028 141.934 28.5696C142.213 28.4301 142.527 28.3603 142.876 28.3603Z" fill="#BDBFBF"/>
<path d="M54.6948 12.49C55.6119 12.661 56.3661 13.1196 56.9568 13.8658C57.5474 14.612 57.8429 15.4671 57.8429 16.4309C57.8429 17.3015 57.6253 18.071 57.19 18.7395C56.7702 19.3924 56.1563 19.9054 55.3478 20.2785C54.5393 20.6516 53.5832 20.8382 52.4795 20.8382H45.4606V4.5616H52.1764C53.2801 4.5616 54.2285 4.74039 55.0213 5.09793C55.8298 5.45548 56.4361 5.95297 56.8402 6.59034C57.2599 7.22771 57.4698 7.9506 57.4698 8.75899C57.4698 9.7073 57.2133 10.5001 56.7003 11.1375C56.2029 11.7749 55.5343 12.2257 54.6948 12.49ZM48.7252 11.2774H51.71C52.4872 11.2774 53.0858 11.1064 53.5056 10.7644C53.9253 10.4069 54.1352 9.90162 54.1352 9.24869C54.1352 8.59576 53.9253 8.09051 53.5056 7.73296C53.0858 7.37542 52.4872 7.19663 51.71 7.19663H48.7252V11.2774ZM52.0132 18.1798C52.806 18.1798 53.42 17.9933 53.8554 17.6202C54.3061 17.2471 54.5316 16.7185 54.5316 16.0345C54.5316 15.3349 54.2984 14.7908 53.832 14.4022C53.3657 13.998 52.7361 13.7959 51.9432 13.7959H48.7252V18.1798H52.0132Z" fill="#FCFEFE"/>
<path d="M65.3882 21.048C64.3311 21.048 63.3827 20.8615 62.5433 20.4884C61.7038 20.0997 61.0352 19.5789 60.5378 18.926C60.0558 18.2731 59.7916 17.5502 59.745 16.7574H63.033C63.0952 17.2548 63.3361 17.6668 63.7558 17.9933C64.1912 18.3197 64.7276 18.483 65.3648 18.483C65.9868 18.483 66.4685 18.3586 66.8106 18.1099C67.1681 17.8611 67.3469 17.5424 67.3469 17.1538C67.3469 16.734 67.1294 16.4231 66.694 16.221C66.2743 16.0034 65.598 15.7702 64.6653 15.5215C63.7015 15.2883 62.9087 15.0473 62.2867 14.7986C61.6805 14.5498 61.1518 14.169 60.7011 13.6559C60.2657 13.1429 60.0481 12.4511 60.0481 11.5806C60.0481 10.8654 60.2503 10.2125 60.6544 9.62179C61.0742 9.03102 61.6648 8.56465 62.4267 8.22266C63.2039 7.88064 64.1133 7.70964 65.155 7.70964C66.694 7.70964 67.9222 8.0983 68.8393 8.87558C69.7565 9.63734 70.2618 10.6711 70.3551 11.977H67.2303C67.1837 11.464 66.9662 11.0598 66.5774 10.7644C66.2043 10.4535 65.699 10.298 65.0617 10.298C64.4711 10.298 64.0123 10.4069 63.6859 10.6245C63.3751 10.8421 63.2195 11.1453 63.2195 11.5339C63.2195 11.9692 63.437 12.3035 63.8724 12.5366C64.3078 12.7543 64.9841 12.9797 65.9012 13.2129C66.8339 13.4461 67.6034 13.687 68.2097 13.9358C68.816 14.1845 69.3367 14.5731 69.7721 15.1017C70.2228 15.6147 70.456 16.2987 70.4717 17.1538C70.4717 17.9 70.2618 18.5685 69.8421 19.1592C69.438 19.7499 68.847 20.2163 68.0698 20.5583C67.308 20.8848 66.4142 21.048 65.3882 21.048Z" fill="#FCFEFE"/>
<path d="M72.312 14.3788C72.312 13.0419 72.5842 11.876 73.1282 10.881C73.6722 9.87053 74.4264 9.09322 75.3901 8.54912C76.3538 7.98947 77.4578 7.70964 78.7014 7.70964C80.3027 7.70964 81.6239 8.11382 82.6656 8.92222C83.7226 9.71506 84.4301 10.8344 84.7876 12.2801H81.2664C81.0799 11.7205 80.7611 11.2852 80.3104 10.9743C79.875 10.6478 79.331 10.4846 78.6781 10.4846C77.7453 10.4846 77.0068 10.8266 76.4628 11.5106C75.9188 12.1791 75.6466 13.1352 75.6466 14.3788C75.6466 15.607 75.9188 16.563 76.4628 17.2471C77.0068 17.9155 77.7453 18.2498 78.6781 18.2498C79.9996 18.2498 80.8624 17.659 81.2664 16.4775H84.7876C84.4301 17.8767 83.7226 18.9882 82.6656 19.8121C81.6086 20.6361 80.2871 21.048 78.7014 21.048C77.4578 21.048 76.3538 20.776 75.3901 20.2319C74.4264 19.6722 73.6722 18.8949 73.1282 17.9C72.5842 16.8895 72.312 15.7158 72.312 14.3788Z" fill="#FCFEFE"/>
<path d="M92.7993 21.0014C91.6644 21.0014 90.6384 20.8071 89.7213 20.4184C88.8195 20.0298 88.1046 19.4701 87.5759 18.7395C87.0473 18.0088 86.7754 17.146 86.7598 16.1511H90.2576C90.3042 16.8195 90.5374 17.3481 90.9572 17.7367C91.3925 18.1254 91.9832 18.3197 92.7294 18.3197C93.4912 18.3197 94.0896 18.1409 94.5249 17.7834C94.9603 17.4103 95.1779 16.9283 95.1779 16.3376C95.1779 15.8557 95.0303 15.4593 94.7348 15.1483C94.4393 14.8374 94.0662 14.5965 93.6155 14.4255C93.1801 14.2389 92.5738 14.0368 91.7966 13.8192C90.7396 13.5083 89.8768 13.2051 89.2082 12.9097C88.5553 12.5988 87.988 12.1402 87.506 11.5339C87.0396 10.9121 86.8064 10.0882 86.8064 9.06213C86.8064 8.09829 87.0473 7.25881 87.5293 6.54369C88.0113 5.82857 88.6876 5.28447 89.558 4.91137C90.4285 4.52271 91.4235 4.3284 92.5428 4.3284C94.2218 4.3284 95.582 4.74038 96.6236 5.5643C97.6807 6.3727 98.2636 7.50753 98.3726 8.96885H94.7815C94.7505 8.4092 94.5093 7.95059 94.0586 7.59304C93.6232 7.21994 93.0402 7.03339 92.3097 7.03339C91.6724 7.03339 91.1594 7.19662 90.7706 7.52308C90.3975 7.84955 90.211 8.32369 90.211 8.94553C90.211 9.38083 90.3509 9.74614 90.6307 10.0415C90.9262 10.3213 91.2836 10.5545 91.7034 10.7411C92.1388 10.9121 92.745 11.1142 93.5222 11.3474C94.5793 11.6583 95.4421 11.9692 96.1106 12.2801C96.7792 12.591 97.3542 13.0574 97.8362 13.6793C98.3182 14.3011 98.5591 15.1173 98.5591 16.1277C98.5591 16.9983 98.3336 17.8067 97.8829 18.5529C97.4321 19.2991 96.7712 19.8976 95.9008 20.3485C95.0303 20.7837 93.9963 21.0014 92.7993 21.0014Z" fill="#FCFEFE"/>
<path d="M100.55 14.3788C100.55 13.0419 100.822 11.876 101.366 10.881C101.91 9.87053 102.664 9.09322 103.628 8.54912C104.592 7.98947 105.695 7.70964 106.939 7.70964C108.54 7.70964 109.862 8.11382 110.903 8.92222C111.961 9.71506 112.668 10.8344 113.025 12.2801H109.504C109.318 11.7205 108.999 11.2852 108.548 10.9743C108.113 10.6478 107.569 10.4846 106.916 10.4846C105.983 10.4846 105.245 10.8266 104.7 11.5106C104.156 12.1791 103.884 13.1352 103.884 14.3788C103.884 15.607 104.156 16.563 104.7 17.2471C105.245 17.9155 105.983 18.2498 106.916 18.2498C108.237 18.2498 109.1 17.659 109.504 16.4775H113.025C112.668 17.8767 111.961 18.9882 110.903 19.8121C109.846 20.6361 108.525 21.048 106.939 21.048C105.695 21.048 104.592 20.776 103.628 20.2319C102.664 19.6722 101.91 18.8949 101.366 17.9C100.822 16.8895 100.55 15.7158 100.55 14.3788Z" fill="#FCFEFE"/>
<path d="M114.578 14.3322C114.578 13.0263 114.834 11.8682 115.347 10.8577C115.876 9.84721 116.583 9.0699 117.469 8.5258C118.371 7.9817 119.374 7.70964 120.477 7.70964C121.441 7.70964 122.281 7.90395 122.996 8.29261C123.726 8.68127 124.309 9.17097 124.745 9.7617V7.91951H128.033V20.8382H124.745V18.9493C124.325 19.5556 123.742 20.0609 122.996 20.4651C122.265 20.8537 121.418 21.048 120.454 21.048C119.366 21.048 118.371 20.7682 117.469 20.2085C116.583 19.6489 115.876 18.8638 115.347 17.8533C114.834 16.8273 114.578 15.6536 114.578 14.3322ZM124.745 14.3788C124.745 13.586 124.589 12.9097 124.278 12.3501C123.967 11.7749 123.548 11.3396 123.019 11.0442C122.49 10.7333 121.923 10.5779 121.317 10.5779C120.71 10.5779 120.151 10.7255 119.638 11.0209C119.125 11.3163 118.705 11.7516 118.379 12.3268C118.068 12.8864 117.912 13.5549 117.912 14.3322C117.912 15.1095 118.068 15.7935 118.379 16.3843C118.705 16.9595 119.125 17.4025 119.638 17.7134C120.166 18.0243 120.726 18.1798 121.317 18.1798C121.923 18.1798 122.49 18.0321 123.019 17.7367C123.548 17.4258 123.967 16.9905 124.278 16.4309C124.589 15.8557 124.745 15.1717 124.745 14.3788Z" fill="#FCFEFE"/>
<path d="M138.38 7.73297C139.919 7.73297 141.163 8.22267 142.111 9.20206C143.059 10.1659 143.534 11.5184 143.534 13.2595V20.8382H140.269V13.7026C140.269 12.6766 140.012 11.8915 139.499 11.3474C138.986 10.7877 138.287 10.5079 137.401 10.5079C136.499 10.5079 135.784 10.7877 135.255 11.3474C134.742 11.8915 134.486 12.6766 134.486 13.7026V20.8382H131.221V7.91952H134.486V9.52852C134.921 8.96887 135.473 8.53358 136.141 8.22267C136.825 7.8962 137.572 7.73297 138.38 7.73297Z" fill="#FCFEFE"/>
<path d="M8.63479 17.9488C8.63482 17.7409 8.6759 17.5351 8.75571 17.3432C8.83552 17.1513 8.95242 16.977 9.09975 16.8303C9.24709 16.6837 9.42195 16.5676 9.61427 16.4888C9.80659 16.4099 10.0126 16.3698 10.2205 16.3708L12.8494 16.3794C13.2685 16.3794 13.6705 16.5459 13.9669 16.8423C14.2633 17.1387 14.4298 17.5407 14.4298 17.9598V27.9011C14.7259 27.8133 15.1049 27.7197 15.5218 27.6215C15.8107 27.5535 16.0682 27.39 16.2524 27.1574C16.4367 26.9247 16.5371 26.6367 16.5371 26.3399V14.0094C16.5371 13.5902 16.7036 13.1882 17 12.8918C17.2964 12.5953 17.6984 12.4288 18.1176 12.4287H20.7545C21.1736 12.4288 21.5756 12.5953 21.872 12.8918C22.1684 13.1882 22.3349 13.5902 22.3349 14.0094V25.4541C22.3349 25.4541 22.9946 25.1871 23.6368 24.9159C23.8754 24.815 24.0791 24.646 24.2223 24.4301C24.3655 24.2142 24.442 23.9609 24.4422 23.7018V10.0581C24.4422 9.63902 24.6087 9.23708 24.905 8.94068C25.2013 8.64429 25.6032 8.47774 26.0224 8.47765H28.6565C29.0754 8.47808 29.477 8.64475 29.773 8.94111C30.0691 9.23747 30.2354 9.63923 30.2354 10.0581V21.2932C32.5192 19.6382 34.8336 17.6475 36.6702 15.2539C36.9366 14.9065 37.113 14.4985 37.1836 14.0663C37.2538 13.6342 37.2164 13.1913 37.074 12.7772C36.2238 10.3313 34.8722 8.08966 33.1061 6.19596C31.3399 4.30225 29.1978 2.79809 26.8169 1.77974C24.436 0.761403 21.8687 0.251298 19.2794 0.282076C16.69 0.312854 14.1356 0.883837 11.7796 1.95848C9.42358 3.03313 7.31786 4.58779 5.59714 6.52294C3.87644 8.4581 2.57866 10.7312 1.78685 13.1967C0.995034 15.6622 0.726629 18.2658 0.998806 20.841C1.27098 23.4162 2.07775 25.9062 3.36748 28.1517C3.59218 28.5391 3.92276 28.8543 4.3204 29.0603C4.71802 29.2663 5.16617 29.3545 5.61224 29.3146C6.11052 29.2707 6.73093 29.2087 7.46854 29.1222C7.78954 29.0857 8.08594 28.9324 8.30121 28.6914C8.51651 28.4505 8.63568 28.1389 8.63602 27.8157V17.9488" fill="#FCFEFE"/>
<path d="M8.57837 33.8918C11.3549 35.9117 14.6361 37.1242 18.059 37.3949C21.4818 37.6658 24.9128 36.9843 27.9724 35.4263C31.0321 33.8682 33.601 31.494 35.395 28.5665C37.189 25.6389 38.1384 22.2721 38.1377 18.8386C38.1377 18.4091 38.1178 17.9862 38.0893 17.5647C31.2891 27.7068 18.7331 32.4482 8.57837 33.8918Z" fill="#4455BF"/>
</g>
<defs>
<clipPath id="clip0_166_111">
<rect width="144.209" height="37.4329" fill="white" transform="translate(0.895752 0.280762)"/>
</clipPath>
</defs>
</svg>
