<svg width="36" height="37" viewBox="0 0 36 37" fill="none" xmlns="http://www.w3.org/2000/svg">
<path fill-rule="evenodd" clip-rule="evenodd" d="M17.9867 36.7029C12.6953 36.6989 8.43271 35.4291 5.45456 33.1485C2.44071 30.8405 0.841797 27.5651 0.841797 23.8588C0.841797 20.2878 2.43709 17.7127 4.24228 15.9721C5.65703 14.6081 7.21807 13.7346 8.3051 13.2319C8.05931 12.4775 7.75261 11.49 7.47818 10.4698C7.11112 9.10494 6.75095 7.50331 6.75095 6.32981C6.75095 4.9408 7.05366 3.54562 7.87025 2.46167C8.73306 1.31645 10.032 0.702881 11.5945 0.702881C12.8156 0.702881 13.8525 1.15586 14.664 1.93728C15.4398 2.68408 15.9564 3.67613 16.3129 4.71023C16.9394 6.52721 17.1833 8.81003 17.2517 11.0883H18.7484C18.8169 8.81003 19.0607 6.52721 19.6873 4.71023C20.0438 3.67613 20.5601 2.68426 21.3361 1.93728C22.1478 1.15604 23.1844 0.702881 24.4056 0.702881C25.9682 0.702881 27.267 1.31645 28.1298 2.46167C28.9464 3.54562 29.2493 4.9408 29.2493 6.32981C29.2493 7.50331 28.8889 9.10494 28.5218 10.4698C28.2474 11.49 27.9407 12.4775 27.6949 13.2319C28.782 13.7346 30.3432 14.6081 31.7577 15.9723C33.5629 17.7127 35.1582 20.2878 35.1582 23.8588C35.1582 27.5651 33.5595 30.8405 30.5455 33.1485C27.5673 35.4291 23.3048 36.6989 18.0133 36.7029H17.9867Z" fill="#F4F4F4"/>
<path d="M11.5943 2.02393C9.30586 2.02393 8.25236 3.74882 8.25236 6.13405C8.25236 8.03006 9.47642 11.8271 9.97852 13.3053C10.0916 13.638 9.91399 14.0021 9.59026 14.131C7.75606 14.8617 2.3432 17.5367 2.3432 23.6632C2.3432 30.1167 7.84397 34.9827 17.988 34.9905L17.9999 34.9903L18.0121 34.9905C28.1559 34.9827 33.6567 30.1167 33.6567 23.6632C33.6567 17.5367 28.2438 14.8617 26.4096 14.131C26.0859 14.0023 25.9084 13.638 26.0213 13.3053C26.5236 11.8273 27.7477 8.03006 27.7477 6.13405C27.7477 3.74864 26.6942 2.02393 24.4056 2.02393C21.1113 2.02393 20.29 6.73802 20.2315 11.7976C20.2276 12.1353 19.9572 12.4094 19.623 12.4094H16.3771C16.0427 12.4094 15.7724 12.1353 15.7684 11.7976C15.7099 6.73802 14.8887 2.02393 11.5943 2.02393Z" fill="white"/>
<path d="M18.0121 32.9232C10.5589 32.9232 2.35607 28.8928 2.3432 23.6755V23.6998C2.3432 30.1586 7.85267 35.0271 18.0121 35.0271C28.1715 35.0271 33.681 30.1586 33.681 23.6998V23.6755C33.6681 28.8928 25.4652 32.9232 18.0121 32.9232Z" fill="#96A0DF"/>
<path d="M13.871 22.073C13.871 23.8346 13.0469 24.7519 12.0304 24.7519C11.0139 24.7519 10.1899 23.8346 10.1899 22.073C10.1899 20.3115 11.0139 19.3942 12.0304 19.3942C13.0469 19.3942 13.871 20.3115 13.871 22.073ZM25.8345 22.073C25.8345 23.8346 25.0104 24.7519 23.9939 24.7519C22.9774 24.7519 22.1534 23.8346 22.1534 22.073C22.1534 20.3115 22.9774 19.3942 23.9939 19.3942C25.0104 19.3942 25.8345 20.3115 25.8345 22.073Z" fill="#DA569F"/>
</svg>
