<svg width="32" height="37" viewBox="0 0 32 37" fill="none" xmlns="http://www.w3.org/2000/svg">
<path fill-rule="evenodd" clip-rule="evenodd" d="M11.941 2.73839C9.77095 3.85556 7.99552 4.8009 7.9959 4.83935C7.99687 4.93859 13.2042 7.54479 13.389 7.53844C13.4731 7.53565 14.083 7.2582 14.7442 6.92195L15.9468 6.3107L17.2601 6.97784L18.5734 7.64511L20.7241 6.69005C23.9648 5.25092 24.3014 5.09322 24.2486 5.04023C24.1786 4.96994 23.0162 4.35283 19.8626 2.71207C18.3385 1.91907 16.8593 1.14156 16.5753 0.984233C16.2914 0.826904 16.0203 0.700344 15.9729 0.702794C15.9256 0.705244 14.1112 1.62127 11.941 2.73839ZM2.42308 7.60923L0.164049 8.76239V13.8234C0.164049 16.607 0.193712 18.8844 0.230098 18.8844C0.266357 18.8844 1.3778 18.4082 2.69992 17.8263L5.10378 16.7682V11.4336L6.27846 12.066C7.18365 12.553 8.08939 13.0389 8.99567 13.5239L10.5382 14.3492L11.2245 14.0425C11.655 13.8498 12.0846 13.6553 12.5133 13.4588C12.8446 13.3064 13.6579 12.9444 14.3205 12.6543C14.9832 12.364 15.5965 12.0722 15.6835 12.0056C15.7991 11.9173 14.3902 11.1479 10.4725 9.15968C7.5194 7.66101 5.00848 6.43958 4.89269 6.44544C4.77689 6.45129 3.66557 6.97493 2.42308 7.60923ZM24.6557 7.93307C23.1172 8.61947 21.8573 9.20851 21.8559 9.2421C21.8545 9.27565 22.6931 9.7684 23.7194 10.3369C24.7457 10.9056 25.5854 11.4012 25.5854 11.4386C25.5854 11.4758 24.6773 11.9107 23.5674 12.4051C22.4574 12.8994 19.6518 14.1516 17.3326 15.1877L9.56154 18.6591C7.60675 19.5324 5.84473 20.3195 5.64595 20.4085C1.65318 22.1948 0.555721 22.6904 0.40501 22.7755C0.253459 22.8612 0.219132 23.3588 0.192157 25.8565L0.159973 28.8355L2.1801 29.8527L4.20018 30.8699L7.00134 29.6206C8.54202 28.9335 9.8025 28.3353 9.8025 28.2913C9.8025 28.2473 9.5178 28.064 9.16999 27.8837C8.82202 27.7034 8.10371 27.3043 7.5736 26.9966C7.04353 26.6889 6.51497 26.4066 6.39892 26.3691C6.28291 26.3318 6.18968 26.2665 6.19157 26.2239C6.1935 26.1814 7.42701 25.6024 8.93252 24.9371C11.8567 23.645 14.0945 22.6492 18.8988 20.5021C21.0471 19.5422 23.1957 18.5829 25.3445 17.6242C27.233 16.7818 29.4288 15.7979 30.224 15.4378L31.6697 14.7831L31.7019 11.7702L31.7342 8.75741L29.6853 7.7181C28.5583 7.14655 27.5951 6.68029 27.5446 6.68199C27.4941 6.68357 26.1941 7.24649 24.6557 7.93307ZM31.1208 18.8025C30.8189 18.9482 30.2225 19.2211 29.7955 19.4088C29.3686 19.5966 28.5583 19.9579 27.9951 20.2118L26.971 20.6735L26.9476 23.3185C26.9347 24.7733 26.8805 25.9571 26.8271 25.9494C26.7059 25.9316 24.7866 24.9588 22.8572 23.9371C21.4647 23.1998 21.3772 23.1705 21.05 23.3306C20.8608 23.4232 19.7301 23.9244 18.5374 24.4444C17.3446 24.9644 16.3298 25.4238 16.2821 25.4654C16.2345 25.507 18.635 26.7928 21.6168 28.323L27.0381 31.1051L29.354 29.9212C30.6276 29.2701 31.7106 28.6762 31.7604 28.6015C31.8727 28.4336 31.8631 18.5145 31.7507 18.5279C31.7062 18.5331 31.4227 18.6567 31.1208 18.8025ZM18.2964 30.445C17.8947 30.6157 17.4931 30.7866 17.0916 30.9578C15.8792 31.4762 16.1168 31.4933 14.6744 30.7837C13.7137 30.3111 13.2996 30.1653 13.1198 30.2361C12.985 30.2892 11.8246 30.8051 10.5411 31.3825C9.25756 31.96 8.16287 32.4324 8.10842 32.4324C7.5699 32.4324 8.46518 32.961 11.9199 34.6832L15.9714 36.7028L17.676 35.8711C18.6136 35.4136 20.5047 34.4976 21.8785 33.8355C23.2522 33.1732 24.3592 32.6142 24.3385 32.5931C24.3176 32.5721 23.1665 31.9879 21.7804 31.295L19.2602 30.0353L18.2964 30.445Z" fill="white"/>
</svg>
