<svg width="36" height="37" viewBox="0 0 36 37" fill="none" xmlns="http://www.w3.org/2000/svg">
<path d="M7.49509 17.8225C7.49509 16.9916 8.17772 16.3091 9.00725 16.3091H11.5578C12.3887 16.3091 13.1002 16.9916 13.1002 17.8528V27.4706C13.3968 27.3814 13.7525 27.2921 14.1687 27.2028C14.7318 27.0545 15.148 26.5505 15.148 25.9557V14.0223C15.148 13.1914 15.8307 12.4786 16.6904 12.4786H19.2409C20.0719 12.4786 20.7834 13.1612 20.7834 14.0223V25.096C20.7834 25.096 21.4069 24.8282 22.0291 24.5618C22.5043 24.3544 22.801 23.9095 22.801 23.3738V10.1645C22.801 9.33361 23.4836 8.6208 24.3146 8.6208H26.8651C27.6961 8.6208 28.3787 9.30337 28.3787 10.1645V21.0597C30.5735 19.4569 32.8288 17.5273 34.6088 15.2118C35.1431 14.5292 35.2914 13.6378 34.9947 12.8069C31.7314 3.42665 21.4689 -1.56157 12.0949 1.70439C2.72099 4.97035 -2.26192 15.2406 1.00001 24.6223C1.35573 25.6908 1.83098 26.7002 2.39408 27.6794C2.83908 28.4513 3.67005 28.8963 4.56006 28.807C5.03531 28.7767 5.62865 28.7177 6.36889 28.6284C7.02128 28.5694 7.49653 28.0049 7.49653 27.3511L7.49509 17.8225Z" fill="white"/>
<path d="M7.43463 33.2601C15.4735 39.108 26.7168 37.3267 32.5595 29.2827C34.7845 26.1953 36 22.4844 36 18.6857C36 18.2695 35.9698 17.8548 35.941 17.4386C29.3868 27.2638 17.2536 31.8647 7.43463 33.2601Z" fill="white"/>
</svg>
