<svg width="42" height="55" viewBox="0 0 42 55" fill="none" xmlns="http://www.w3.org/2000/svg">
<g clip-path="url(#clip0_257_17)">
<path d="M16.5371 13.1273C16.0207 13.0442 15.9961 13.0165 16.242 12.9887C16.7092 12.9056 17.7911 13.0165 18.5534 13.2105C20.3238 13.6816 21.9221 14.901 23.6188 17.0351L24.0614 17.6171L24.7007 17.5062C27.4301 17.0073 30.2333 17.3953 32.5693 18.6148C33.2086 18.9474 34.2167 19.6125 34.3397 19.7788C34.3889 19.8342 34.4626 20.1945 34.5118 20.5548C34.6839 21.8574 34.6102 22.8274 34.2413 23.5757C34.0446 23.9914 34.0446 24.1022 34.1675 24.4625C34.2659 24.7397 34.561 24.9337 34.8315 24.9337C35.4216 24.9337 36.0363 23.8805 36.3314 22.4117L36.4543 21.8297L36.6756 22.1068C37.9297 23.6865 38.9133 25.876 39.0608 27.428L39.11 27.8437L38.8887 27.4834C38.5198 26.846 38.1756 26.4303 37.7084 26.07C36.8724 25.4325 35.9872 25.2385 33.6512 25.1C31.5365 24.9614 30.3316 24.7674 29.1514 24.324C27.135 23.5757 26.1023 22.6057 23.7171 19.0305C22.6598 17.4508 21.9959 16.5916 21.332 15.8711C19.8812 14.2913 18.4305 13.4599 16.5371 13.1273Z" fill="white"/>
<path d="M34.856 16.6471C34.9052 15.5939 35.0281 14.9011 35.2986 14.2636C35.397 14.0142 35.4953 13.7925 35.5199 13.7925C35.5445 13.7925 35.4953 13.9865 35.4216 14.2082C35.2248 14.8179 35.2003 15.6771 35.3232 16.6471C35.4953 17.8942 35.5691 18.0605 36.7494 19.4185C37.2903 20.056 37.9297 20.8597 38.1755 21.1922L38.5936 21.802L38.1755 21.3585C37.6592 20.8042 36.4789 19.7511 36.2084 19.6125C36.0363 19.5017 36.0117 19.5017 35.8888 19.6402C35.7904 19.7511 35.7658 19.9174 35.7658 20.7211C35.7412 21.9682 35.5937 22.7443 35.2248 23.548C35.0281 23.9637 35.0035 23.8805 35.1757 23.4094C35.2986 23.0491 35.3232 22.8828 35.3232 21.6911C35.3232 19.2799 35.0773 18.6979 33.5774 17.7279C33.2085 17.4785 32.5692 17.1182 32.2004 16.9242C31.8069 16.7302 31.5119 16.5639 31.5365 16.5639C31.5856 16.5085 33.0364 16.9796 33.602 17.2568C34.4626 17.6448 34.6101 17.6725 34.7085 17.6448C34.7822 17.5616 34.8314 17.3399 34.856 16.6471Z" fill="white"/>
<path d="M17.5453 20.7765C16.5125 19.169 15.8486 16.6747 15.9962 14.8178L16.0454 14.2358L16.2912 14.2913C16.7338 14.3744 17.4961 14.707 17.865 14.9564C18.8485 15.6216 19.2911 16.5361 19.7091 18.8087C19.8321 19.4739 20.0042 20.2499 20.078 20.4993C20.2009 20.915 20.6681 21.885 21.0615 22.4948C21.332 22.9382 21.1599 23.1599 20.5452 23.1045C19.6108 22.9936 18.3567 22.0236 17.5453 20.7765Z" fill="white"/>
<path d="M33.602 32.8323C28.7333 30.6151 27.0121 28.7028 27.0121 25.4602C27.0121 24.9891 27.0367 24.6011 27.0367 24.6011C27.0613 24.6011 27.2334 24.7674 27.4547 24.9614C28.4383 25.8482 29.5448 26.2362 32.6184 26.7351C34.4134 27.0399 35.4462 27.2617 36.3806 27.622C39.3559 28.7305 41.2 31.0031 41.6427 34.0794C41.7656 34.9663 41.6918 36.6569 41.4951 37.5437C41.323 38.2366 40.8312 39.5115 40.7083 39.5392C40.6837 39.5392 40.6345 39.4006 40.6345 39.1789C40.5853 38.0149 40.0689 36.9063 39.2083 36.0471C38.1756 35.0494 36.8478 34.3011 33.602 32.8323Z" fill="white"/>
<path d="M30.1595 33.747C30.1103 33.3312 29.9874 32.8047 29.9136 32.583L29.7907 32.1672L30.012 32.4721C30.3316 32.8878 30.5775 33.3867 30.7988 34.0795C30.971 34.6061 30.971 34.7724 30.971 35.6315C30.971 36.463 30.9464 36.657 30.7988 37.1281C30.5529 37.8764 30.2579 38.403 29.7661 38.985C28.8809 40.0104 27.7252 40.5647 26.0777 40.8141C25.7826 40.8419 24.9466 40.925 24.2089 40.9804C22.3647 41.0913 21.1353 41.313 20.0288 41.7564C19.8812 41.8119 19.7337 41.8673 19.7091 41.8396C19.6599 41.7842 20.4222 41.2853 21.0369 40.9527C21.8975 40.4816 22.7828 40.2321 24.7253 39.8441C25.6843 39.6779 26.6679 39.4561 26.9137 39.3453C29.3481 38.4861 30.5529 36.3521 30.1595 33.747Z" fill="white"/>
<path d="M32.3971 38.2089C31.7578 36.6292 31.6103 35.1326 31.9545 33.7192C32.0037 33.5806 32.0529 33.442 32.1021 33.442C32.1512 33.442 32.2988 33.5252 32.4463 33.636C32.7414 33.8577 33.3561 34.2457 34.9298 35.2157C36.9216 36.4352 38.0527 37.3775 38.8395 38.4583C39.528 39.4006 39.946 40.4815 40.1427 41.8118C40.2657 42.5601 40.1919 44.3615 40.0198 45.1098C39.4788 47.4655 38.2494 49.3501 36.4544 50.431C36.1839 50.5973 35.9626 50.7081 35.938 50.7081C35.9134 50.7081 36.0118 50.431 36.1593 50.0984C36.7494 48.685 36.8232 47.327 36.3806 45.8027C36.1101 44.8604 35.5446 43.7241 34.4135 41.8118C33.061 39.5946 32.7414 39.0126 32.3971 38.2089Z" fill="white"/>
<path d="M14.0782 46.6895C15.8978 44.9712 18.1354 43.7517 20.2009 43.3637C21.0861 43.1974 22.5615 43.2529 23.3729 43.5023C24.6761 43.8903 25.8564 44.7217 26.4712 45.7472C27.0613 46.7449 27.3318 47.604 27.6023 49.5163C27.7006 50.2646 27.8236 51.0406 27.8481 51.2069C28.0449 52.2046 28.4383 52.9806 28.9301 53.3964C29.6923 54.0338 31.0202 54.0615 32.3234 53.5072C32.5447 53.4241 32.7414 53.3409 32.7414 53.3687C32.7906 53.4241 32.1267 53.9229 31.6841 54.1724C31.0693 54.5327 30.5775 54.6435 29.9136 54.6435C28.7334 54.6435 27.7252 53.9507 26.9138 52.5649C26.7416 52.2878 26.3974 51.4841 26.1023 50.7358C25.2417 48.4909 24.7991 47.8258 23.7909 47.0775C22.9057 46.44 21.7746 46.3015 20.914 46.7726C19.7829 47.3823 19.4878 49.0175 20.2747 50.0152C20.5943 50.4309 21.1845 50.7635 21.6763 50.8466C22.5861 50.9852 23.3729 50.1815 23.3729 49.1561C23.3729 48.4909 23.1516 48.1029 22.5615 47.798C21.7746 47.41 20.914 47.8535 20.9386 48.7126C20.9386 49.0729 21.0861 49.2946 21.4058 49.4609C21.6025 49.5718 21.6025 49.5718 21.455 49.5441C20.7419 49.3778 20.5697 48.38 21.1353 47.7426C21.8238 46.9666 23.2746 47.2992 23.7663 48.38C23.9631 48.8235 23.9876 49.7103 23.8155 50.2646C23.3975 51.4841 22.2172 52.1215 21.0124 51.7612C20.2009 51.5118 19.8567 51.2624 18.8731 50.1261C17.1518 48.1306 16.4879 47.7426 14.029 47.3269L13.5618 47.2438L14.0782 46.6895Z" fill="white"/>
<path fill-rule="evenodd" clip-rule="evenodd" d="M1.14419 2.097C6.87347 9.94019 15.701 22.1346 16.1436 22.7997C16.5124 23.354 16.3649 23.8806 15.7502 24.2686C15.4059 24.4903 14.6928 24.712 14.3486 24.712C13.9552 24.712 13.488 24.4903 13.1683 24.13C12.947 23.8806 11.988 22.3008 9.82418 18.504C8.1767 15.5939 6.77512 13.1828 6.75053 13.1551C6.65217 13.0996 6.65217 13.0996 9.65205 19.1414C11.5454 22.9383 12.1601 24.2963 12.1601 24.4626C12.1601 24.8229 12.0618 25.0169 11.6684 25.5157C11.0045 26.3472 10.7094 27.2894 10.4881 29.2572C10.2422 31.4466 9.57829 32.9986 7.68492 35.6315C6.5784 37.1835 6.40628 37.4607 6.1358 38.0981C5.79155 38.8741 5.69319 39.3175 5.64402 40.3152C5.59484 41.3684 5.69319 42.0335 5.96367 43.0313C6.20957 43.9181 6.48005 44.5001 7.14396 45.6364C7.70951 46.6341 8.05376 47.3824 8.05376 47.6596C8.05376 47.8813 8.10293 47.8813 8.98814 47.6596C11.1028 47.1053 12.8486 46.163 13.8076 44.999C14.3978 44.2784 14.5453 43.8904 14.5453 42.8927C14.5453 42.2553 14.5207 42.1167 14.3732 41.7287C14.1273 41.119 13.6601 40.6201 12.6519 39.8441C11.3241 38.8187 10.7586 37.9872 10.611 36.8787C10.4881 35.9364 10.6356 35.2989 11.3733 33.5529C12.1356 31.7515 12.3323 31.0032 12.4552 29.174C12.529 28.01 12.6519 27.5389 12.947 27.1786C13.2667 26.7906 13.5371 26.652 14.2994 26.5412C15.5535 26.3472 16.3649 25.9869 17.0042 25.294C17.5698 24.712 17.8157 24.13 17.8403 23.2708L17.8648 22.6334L17.5452 22.2454C16.3895 20.7488 0.381929 0.905273 0.308162 0.905273C0.283572 0.905273 0.676999 1.43185 1.14419 2.097ZM8.69307 41.507C8.96356 40.9804 8.81602 40.3152 8.37341 39.9827C7.9554 39.6778 7.31608 39.8164 7.31608 40.2321C7.31608 40.343 7.36526 40.4538 7.51279 40.5092C7.7341 40.6478 7.75869 40.7864 7.58656 41.0913C7.41444 41.3961 7.41444 41.6733 7.63574 41.8673C7.97999 42.1721 8.44718 42.0058 8.69307 41.507Z" fill="white"/>
<path fill-rule="evenodd" clip-rule="evenodd" d="M18.6517 26.9291C18.0616 27.1231 17.4961 27.8437 17.3239 28.5642C17.2256 29.0077 17.2748 29.8114 17.4469 30.0608C17.7174 30.4488 17.9633 30.5597 18.6517 30.5597C20.0042 30.5597 21.1598 29.8945 21.2828 29.0908C21.4057 28.4257 20.8894 27.5111 20.1763 27.0954C19.8074 26.8736 19.0452 26.7905 18.6517 26.9291ZM20.2255 28.3148C20.4222 27.9822 20.3484 27.6219 19.9796 27.3725C19.3157 26.9014 18.3075 27.2894 18.3075 28.0099C18.3075 28.3702 18.8239 28.7582 19.3157 28.7582C19.6353 28.7582 20.0779 28.5365 20.2255 28.3148Z" fill="white"/>
</g>
<defs>
<clipPath id="clip0_257_17">
<rect width="41.3836" height="53.7106" fill="white" transform="translate(0.308228 0.905273)"/>
</clipPath>
</defs>
</svg>
